<?xml version="1.0" encoding="UTF-8"?>
<!DOCTYPE svg PUBLIC "-//W3C//DTD SVG 1.1//EN" "http://www.w3.org/Graphics/SVG/1.1/DTD/svg11.dtd">
<svg xmlns="http://www.w3.org/2000/svg" version="1.1" width="500px" height="500px" style="shape-rendering:geometricPrecision; text-rendering:geometricPrecision; image-rendering:optimizeQuality; fill-rule:evenodd; clip-rule:evenodd" xmlns:xlink="http://www.w3.org/1999/xlink">
<g><path style="opacity:0.004" fill="#fefffe" d="M 186.5,0.5 C 187.833,1.16667 187.833,1.16667 186.5,0.5 Z"/></g>
<g><path style="opacity:0.004" fill="#fefffe" d="M 339.5,17.5 C 340.833,18.1667 340.833,18.1667 339.5,17.5 Z"/></g>
<g><path style="opacity:0.004" fill="#fefffe" d="M 22.5,26.5 C 23.8333,27.1667 23.8333,27.1667 22.5,26.5 Z"/></g>
<g><path style="opacity:0.004" fill="#fefffe" d="M 405.5,28.5 C 406.833,29.1667 406.833,29.1667 405.5,28.5 Z"/></g>
<g><path style="opacity:0.004" fill="#fefffe" d="M 462.5,41.5 C 463.833,42.1667 463.833,42.1667 462.5,41.5 Z"/></g>
<g><path style="opacity:0.004" fill="#fefffe" d="M 186.5,51.5 C 187.833,52.1667 187.833,52.1667 186.5,51.5 Z"/></g>
<g><path style="opacity:0.004" fill="#fefffe" d="M 295.5,52.5 C 296.833,53.1667 296.833,53.1667 295.5,52.5 Z"/></g>
<g><path style="opacity:0.004" fill="#fefffe" d="M 276.5,54.5 C 277.833,55.1667 277.833,55.1667 276.5,54.5 Z"/></g>
<g><path style="opacity:1" fill="#fefefd" d="M 227.5,55.5 C 300.915,53.6305 359.749,81.6305 404,139.5C 445.459,201.903 452.126,267.903 424,337.5C 389.05,408.73 331.884,448.23 252.5,456C 180.825,457.74 122.992,430.574 79,374.5C 38.2937,315.188 29.9604,251.521 54,183.5C 87.0299,107.314 144.863,64.6476 227.5,55.5 Z"/></g>
<g><path style="opacity:0.004" fill="#fefffe" d="M 34.5,63.5 C 35.8333,64.1667 35.8333,64.1667 34.5,63.5 Z"/></g>
<g><path style="opacity:0.004" fill="#fefffe" d="M 91.5,106.5 C 92.8333,107.167 92.8333,107.167 91.5,106.5 Z"/></g>
<g><path style="opacity:0.004" fill="#fefffe" d="M 78.5,115.5 C 79.8333,116.167 79.8333,116.167 78.5,115.5 Z"/></g>
<g><path style="opacity:0.004" fill="#fefffe" d="M 0.5,139.5 C 1.83333,140.167 1.83333,140.167 0.5,139.5 Z"/></g>
<g><path style="opacity:0.004" fill="#fefffe" d="M 443.5,152.5 C 444.833,153.167 444.833,153.167 443.5,152.5 Z"/></g>
<g><path style="opacity:0.004" fill="#fefffe" d="M 18.5,153.5 C 19.8333,154.167 19.8333,154.167 18.5,153.5 Z"/></g>
<g><path style="opacity:1" fill="#020202" d="M 169.5,162.5 C 178.5,162.5 187.5,162.5 196.5,162.5C 196.333,189.835 196.5,217.169 197,244.5C 197.513,243.473 198.013,242.473 198.5,241.5C 209.86,221.319 227.193,212.485 250.5,215C 267.309,216.984 280.142,225.151 289,239.5C 297.307,221.423 311.474,213.256 331.5,215C 339.281,216.254 346.114,219.421 352,224.5C 352.497,222.19 352.663,219.857 352.5,217.5C 361.833,217.5 371.167,217.5 380.5,217.5C 380.667,247.169 380.5,276.835 380,306.5C 377.183,324.319 367.016,335.485 349.5,340C 331.439,344.785 314.439,342.452 298.5,333C 293.689,329.194 290.022,324.527 287.5,319C 294.676,314.912 302.009,311.078 309.5,307.5C 319.023,317.823 330.356,320.323 343.5,315C 351.236,309.47 354.07,301.97 352,292.5C 348.995,296.087 345.162,298.254 340.5,299C 317.285,304.969 300.118,297.469 289,276.5C 275.065,296.601 255.898,304.435 231.5,300C 216.214,296.863 205.214,288.363 198.5,274.5C 198.108,272.821 197.608,271.154 197,269.5C 196.5,279.161 196.334,288.828 196.5,298.5C 187.5,298.5 178.5,298.5 169.5,298.5C 169.666,289.827 169.5,281.16 169,272.5C 168.59,273.901 168.09,275.234 167.5,276.5C 162.275,288.132 153.275,294.965 140.5,297C 119.869,298.415 99.2026,298.915 78.5,298.5C 78.5,254.833 78.5,211.167 78.5,167.5C 93.837,167.333 109.17,167.5 124.5,168C 149.99,169.813 161.157,183.313 158,208.5C 156.31,217.528 151.476,224.362 143.5,229C 154.623,230.712 162.623,236.546 167.5,246.5C 168.09,247.766 168.59,249.099 169,250.5C 169.5,221.169 169.667,191.835 169.5,162.5 Z"/></g>
<g><path style="opacity:1" fill="#989898" d="M 168.5,162.5 C 177.986,161.506 187.652,161.173 197.5,161.5C 197.169,188.339 197.502,215.005 198.5,241.5C 198.013,242.473 197.513,243.473 197,244.5C 196.5,217.169 196.333,189.835 196.5,162.5C 187.5,162.5 178.5,162.5 169.5,162.5C 169.167,162.5 168.833,162.5 168.5,162.5 Z"/></g>
<g><path style="opacity:1" fill="#4a4a4a" d="M 168.5,162.5 C 168.833,162.5 169.167,162.5 169.5,162.5C 169.667,191.835 169.5,221.169 169,250.5C 168.59,249.099 168.09,247.766 167.5,246.5C 168.498,218.672 168.831,190.672 168.5,162.5 Z"/></g>
<g><path style="opacity:1" fill="#f5f5f5" d="M 107.5,190.5 C 115.204,189.798 122.038,191.798 128,196.5C 132.62,206.642 129.787,213.809 119.5,218C 115.514,218.499 111.514,218.666 107.5,218.5C 107.5,209.167 107.5,199.833 107.5,190.5 Z"/></g>
<g><path style="opacity:0.004" fill="#fefffe" d="M 18.5,217.5 C 19.8333,218.167 19.8333,218.167 18.5,217.5 Z"/></g>
<g><path style="opacity:1" fill="#fafafa" d="M 238.5,238.5 C 258.064,238.225 265.564,247.559 261,266.5C 259.098,271.4 255.598,274.567 250.5,276C 231.168,278.334 223.001,269.834 226,250.5C 228.744,244.921 232.911,240.921 238.5,238.5 Z"/></g>
<g><path style="opacity:1" fill="#fafafa" d="M 328.5,238.5 C 348.076,238.236 355.576,247.569 351,266.5C 345.435,275.851 337.269,279.017 326.5,276C 316.407,270.422 312.907,261.922 316,250.5C 318.744,244.921 322.911,240.921 328.5,238.5 Z"/></g>
<g><path style="opacity:1" fill="#f7f7f7" d="M 107.5,244.5 C 115.685,243.897 123.685,244.731 131.5,247C 139.664,252.5 141.498,259.667 137,268.5C 133.995,272.087 130.162,274.254 125.5,275C 119.509,275.499 113.509,275.666 107.5,275.5C 107.5,265.167 107.5,254.833 107.5,244.5 Z"/></g>
<g><path style="opacity:1" fill="#040404" d="M 397.5,264.5 C 416.935,264.755 423.768,274.088 418,292.5C 411.013,300.813 402.513,302.646 392.5,298C 382.69,288.912 382.023,279.245 390.5,269C 392.898,267.476 395.231,265.976 397.5,264.5 Z"/></g>
<g><path style="opacity:0.004" fill="#fefffe" d="M 460.5,267.5 C 461.833,268.167 461.833,268.167 460.5,267.5 Z"/></g>
<g><path style="opacity:1" fill="#4b4b4b" d="M 169.5,298.5 C 168.833,291.167 168.167,283.833 167.5,276.5C 168.09,275.234 168.59,273.901 169,272.5C 169.5,281.16 169.666,289.827 169.5,298.5 Z"/></g>
<g><path style="opacity:1" fill="#9c9c9c" d="M 198.5,274.5 C 197.833,282.5 197.167,290.5 196.5,298.5C 196.334,288.828 196.5,279.161 197,269.5C 197.608,271.154 198.108,272.821 198.5,274.5 Z"/></g>
<g><path style="opacity:0.004" fill="#fefffe" d="M 452.5,280.5 C 453.833,281.167 453.833,281.167 452.5,280.5 Z"/></g>
<g><path style="opacity:1" fill="#343434" d="M 194.5,312.5 C 195.773,313.077 195.773,313.743 194.5,314.5C 193.537,314.03 193.537,313.363 194.5,312.5 Z"/></g>
<g><path style="opacity:1" fill="#292929" d="M 211.5,313.5 C 212.186,314.848 213.186,316.015 214.5,317C 211.895,319.411 211.895,321.911 214.5,324.5C 213.349,325.731 212.183,325.731 211,324.5C 210.73,321.776 210.23,319.109 209.5,316.5C 210.193,315.482 210.859,314.482 211.5,313.5 Z"/></g>
<g><path style="opacity:1" fill="#060606" d="M 253.5,317.5 C 252.772,320.079 252.272,322.746 252,325.5C 251.333,322.5 251.333,319.5 252,316.5C 252.383,317.056 252.883,317.389 253.5,317.5 Z"/></g>
<g><path style="opacity:1" fill="#313131" d="M 253.5,317.5 C 254.14,315.668 255.14,315.335 256.5,316.5C 255.675,317.386 254.675,317.719 253.5,317.5 Z"/></g>
<g><path style="opacity:1" fill="#262626" d="M 178.5,315.5 C 179.376,315.369 180.043,315.702 180.5,316.5C 179.372,317.262 178.205,317.929 177,318.5C 176.814,320.9 176.314,323.234 175.5,325.5C 174.516,322.572 174.183,319.572 174.5,316.5C 176.099,316.768 177.432,316.434 178.5,315.5 Z"/></g>
<g><path style="opacity:1" fill="#525252" d="M 193.5,316.5 C 194.765,317.514 195.431,319.014 195.5,321C 195.167,322.5 194.833,324 194.5,325.5C 193.516,322.572 193.183,319.572 193.5,316.5 Z"/></g>
<g><path style="opacity:1" fill="#262626" d="M 144.5,312.5 C 145.376,312.369 146.043,312.702 146.5,313.5C 147.308,315.925 148.308,318.258 149.5,320.5C 152.359,313.805 154.525,314.138 156,321.5C 156.956,318.623 158.289,315.956 160,313.5C 159.768,317.703 158.602,321.703 156.5,325.5C 155.052,323.333 153.885,321 153,318.5C 152,320.5 151,322.5 150,324.5C 149.333,325.833 148.667,325.833 148,324.5C 146.924,320.441 145.757,316.441 144.5,312.5 Z"/></g>
<g><path style="opacity:1" fill="#323232" d="M 231.5,315.5 C 235.167,315.833 237.167,317.833 237.5,321.5C 235.076,321.192 232.743,321.526 230.5,322.5C 230.887,323.72 231.72,324.387 233,324.5C 234.162,323.813 235.328,323.647 236.5,324C 230.138,326.648 227.638,324.481 229,317.5C 229.995,316.934 230.828,316.267 231.5,315.5 Z"/></g>
<g><path style="opacity:1" fill="#e1e1e1" d="M 230.5,317.5 C 232.429,317.231 234.095,317.731 235.5,319C 234.667,319.167 233.833,319.333 233,319.5C 231.624,319.316 230.791,318.649 230.5,317.5 Z"/></g>
<g><path style="opacity:0.004" fill="#fefffe" d="M 19.5,324.5 C 20.8333,325.167 20.8333,325.167 19.5,324.5 Z"/></g>
<g><path style="opacity:0.004" fill="#fefffe" d="M 471.5,325.5 C 472.833,326.167 472.833,326.167 471.5,325.5 Z"/></g>
<g><path style="opacity:0.004" fill="#fefffe" d="M 19.5,329.5 C 20.8333,330.167 20.8333,330.167 19.5,329.5 Z"/></g>
<g><path style="opacity:0.004" fill="#fefffe" d="M 14.5,338.5 C 15.8333,339.167 15.8333,339.167 14.5,338.5 Z"/></g>
<g><path style="opacity:0.004" fill="#fefffe" d="M 24.5,338.5 C 25.8333,339.167 25.8333,339.167 24.5,338.5 Z"/></g>
<g><path style="opacity:0.004" fill="#fefffe" d="M -0.5,353.5 C 0.833333,354.167 0.833333,354.167 -0.5,353.5 Z"/></g>
<g><path style="opacity:0.004" fill="#fefffe" d="M 28.5,362.5 C 29.8333,363.167 29.8333,363.167 28.5,362.5 Z"/></g>
<g><path style="opacity:0.004" fill="#fefffe" d="M 50.5,364.5 C 51.8333,365.167 51.8333,365.167 50.5,364.5 Z"/></g>
<g><path style="opacity:0.004" fill="#fefffe" d="M 26.5,382.5 C 27.8333,383.167 27.8333,383.167 26.5,382.5 Z"/></g>
<g><path style="opacity:0.004" fill="#fefffe" d="M 5.5,414.5 C 6.83333,415.167 6.83333,415.167 5.5,414.5 Z"/></g>
<g><path style="opacity:0.004" fill="#fefffe" d="M 415.5,417.5 C 416.833,418.167 416.833,418.167 415.5,417.5 Z"/></g>
<g><path style="opacity:0.004" fill="#fefffe" d="M 1.5,418.5 C 2.83333,419.167 2.83333,419.167 1.5,418.5 Z"/></g>
<g><path style="opacity:0.004" fill="#fefffe" d="M 81.5,420.5 C 82.8333,421.167 82.8333,421.167 81.5,420.5 Z"/></g>
<g><path style="opacity:0.004" fill="#fefffe" d="M 488.5,424.5 C 489.833,425.167 489.833,425.167 488.5,424.5 Z"/></g>
<g><path style="opacity:0.004" fill="#fefffe" d="M 132.5,429.5 C 133.833,430.167 133.833,430.167 132.5,429.5 Z"/></g>
<g><path style="opacity:0.004" fill="#fefffe" d="M 144.5,433.5 C 145.833,434.167 145.833,434.167 144.5,433.5 Z"/></g>
<g><path style="opacity:0.004" fill="#fefffe" d="M 196.5,455.5 C 197.833,456.167 197.833,456.167 196.5,455.5 Z"/></g>
<g><path style="opacity:0.004" fill="#fefffe" d="M 290.5,459.5 C 291.833,460.167 291.833,460.167 290.5,459.5 Z"/></g>
<g><path style="opacity:0.004" fill="#fefffe" d="M 64.5,470.5 C 65.8333,471.167 65.8333,471.167 64.5,470.5 Z"/></g>
<g><path style="opacity:0.004" fill="#fefffe" d="M 69.5,470.5 C 70.8333,471.167 70.8333,471.167 69.5,470.5 Z"/></g>
<g><path style="opacity:0.004" fill="#fefffe" d="M 320.5,476.5 C 321.833,477.167 321.833,477.167 320.5,476.5 Z"/></g>
<g><path style="opacity:0.004" fill="#fefffe" d="M 183.5,479.5 C 184.833,480.167 184.833,480.167 183.5,479.5 Z"/></g>
<g><path style="opacity:0.004" fill="#fefffe" d="M 378.5,481.5 C 379.833,482.167 379.833,482.167 378.5,481.5 Z"/></g>
<g><path style="opacity:0.004" fill="#fefffe" d="M 421.5,481.5 C 422.833,482.167 422.833,482.167 421.5,481.5 Z"/></g>
<g><path style="opacity:0.004" fill="#fefffe" d="M 461.5,481.5 C 462.833,482.167 462.833,482.167 461.5,481.5 Z"/></g>
<g><path style="opacity:0.004" fill="#fefffe" d="M 230.5,490.5 C 231.833,491.167 231.833,491.167 230.5,490.5 Z"/></g>
<g><path style="opacity:0.004" fill="#fefffe" d="M 225.5,496.5 C 226.833,497.167 226.833,497.167 225.5,496.5 Z"/></g>
</svg>
